<?xml version="1.0" standalone="no"?><!DOCTYPE svg PUBLIC "-//W3C//DTD SVG 1.1//EN" "http://www.w3.org/Graphics/SVG/1.1/DTD/svg11.dtd"><svg t="1668284330756" class="icon" viewBox="0 0 1024 1024" version="1.1" xmlns="http://www.w3.org/2000/svg" p-id="12551" xmlns:xlink="http://www.w3.org/1999/xlink" width="200" height="200"><path d="M867.6 313.7v-54.5c0-38.3-31.2-69.4-69.4-69.4h-710c-38.3 0-69.4 31.2-69.4 69.4v128.2c0 160 93.8 298.6 229.4 363.5h-160c-23 0-41.7 18.6-41.7 41.7s18.7 41.7 41.7 41.7h708.3c23 0 41.7-18.6 41.7-41.7s-18.6-41.7-41.7-41.7H638.2c33.5-16.1 64.4-36.7 92-60.9 22.4 10.7 46.7 17 71.5 18.2 3.2 0.2 6.5 0.2 9.7 0.2 48.3 0 94.3-18.3 130.4-52.2 38-35.7 60.4-84.5 63-137.4 5.6-110.3-48.8-189.9-137.2-205.1z m54 200.9c-1.6 31.3-14.7 60-36.9 80.9-21.8 20.5-49.8 31-78.8 29.5-1.2-0.1-2.5-0.1-3.7-0.3 44.3-57.1 70-126.1 73.7-199.5l1.1-21.6c44.8 24.3 45.7 88.6 44.6 111z" p-id="12552" fill="#c6c5cd"></path></svg>